<svg width="64" height="32" viewBox="0 0 64 32" fill="none" xmlns="http://www.w3.org/2000/svg">
<path d="M5.18494 31.9764C3.76458 31.9764 2.54534 31.4882 1.5272 30.5118C0.509067 29.5364 0 28.3528 0 26.9611C0 25.5703 0.509067 24.3826 1.5272 23.398C2.54534 22.4134 3.76458 21.9211 5.18494 21.9211H8.21421C8.21421 22.4739 8.01519 22.9457 7.61715 23.3344C7.21912 23.7241 6.73833 23.919 6.1727 23.919H5.18389C4.3365 23.919 3.61584 24.2185 3.02088 24.8175C2.42592 25.4164 2.12845 26.1303 2.12845 26.96C2.12845 27.7898 2.42592 28.4995 3.02088 29.0903C3.61584 29.6811 4.3365 29.9764 5.18389 29.9764H6.1727C6.73728 29.9764 7.21912 30.1713 7.61715 30.561C8.01519 30.9508 8.21421 31.4216 8.21421 31.9754H5.18494V31.9764Z" fill="url(#paint0_linear_410_8691)"/>
<path d="M13.8224 21.9221C15.2428 21.9221 16.4641 22.4144 17.4864 23.399C18.5087 24.3836 19.0199 25.5713 19.0199 26.9621C19.0199 28.3529 18.5087 29.5364 17.4864 30.5129C16.4641 31.4893 15.2428 31.9775 13.8224 31.9775C12.402 31.9775 11.1828 31.4893 10.1647 30.5129C9.14652 29.5375 8.63745 28.3539 8.63745 26.9621C8.63745 25.5713 9.14652 24.3836 10.1647 23.399C11.1828 22.4144 12.402 21.9221 13.8224 21.9221ZM13.8224 23.92C12.975 23.92 12.2585 24.2195 11.673 24.8185C11.0864 25.4175 10.7942 26.1313 10.7942 26.9611C10.7942 27.7908 11.0875 28.5006 11.673 29.0913C12.2596 29.6821 12.976 29.9775 13.8224 29.9775C14.6698 29.9775 15.3884 29.6821 15.9791 29.0913C16.5699 28.5006 16.8653 27.7908 16.8653 26.9611C16.8653 26.1313 16.5699 25.4175 15.9791 24.8185C15.3884 24.2195 14.6698 23.92 13.8224 23.92Z" fill="url(#paint1_linear_410_8691)"/>
<path d="M31.9844 31.9765C31.3936 31.9765 30.8866 31.7693 30.4634 31.3539C30.0403 30.9395 29.8276 30.4431 29.8276 29.8647V21.9221C30.4184 21.9221 30.9254 22.1293 31.3486 22.5436C31.7717 22.958 31.9844 23.4544 31.9844 24.0329V31.9765Z" fill="url(#paint2_linear_410_8691)"/>
<path d="M41.2762 26.9621C41.2762 26.1416 40.9808 25.4288 40.3901 24.8257C39.7993 24.2226 39.0849 23.9211 38.247 23.9211C37.3996 23.9211 36.681 24.2206 36.0902 24.8196C35.4995 25.4185 35.2041 26.1324 35.2041 26.9621V29.8657C35.2041 30.4442 34.9925 30.9406 34.5683 31.355C34.1451 31.7693 33.6381 31.9775 33.0474 31.9775V26.9632C33.0474 25.5724 33.5564 24.3847 34.5746 23.4001C35.5927 22.4155 36.8161 21.9232 38.2449 21.9232C39.6652 21.9232 40.8845 22.4155 41.9026 23.4001C42.9207 24.3847 43.4298 25.5724 43.4298 26.9632V31.9775C42.839 31.9775 42.3321 31.7703 41.9089 31.355C41.4857 30.9406 41.2741 30.4442 41.2741 29.8657V26.9621H41.2762Z" fill="url(#paint3_linear_410_8691)"/>
<path d="M52.6611 24.0339C52.6611 23.4555 52.8727 22.9591 53.2959 22.5447C53.719 22.1303 54.226 21.9232 54.8168 21.9232V26.9375C54.8168 28.3283 54.3077 29.516 53.2896 30.5006C52.2714 31.4852 51.0522 31.9775 49.6318 31.9775C48.2031 31.9775 46.9786 31.4852 45.9615 30.5006C44.9434 29.516 44.4343 28.3283 44.4343 26.9375V21.9232C45.0251 21.9232 45.5321 22.1303 45.9552 22.5447C46.3784 22.9591 46.591 23.4555 46.591 24.0339V26.9375C46.591 27.7673 46.8864 28.4811 47.4772 29.0801C48.068 29.6791 48.7865 29.9785 49.6339 29.9785C50.4719 29.9785 51.1873 29.677 51.777 29.0739C52.3678 28.4708 52.6632 27.7591 52.6632 26.9375V24.0339H52.6611Z" fill="url(#paint4_linear_410_8691)"/>
<path d="M24.4457 31.9867C23.4977 31.9744 22.5833 31.7765 21.7024 31.3918C20.8696 31.0277 20.3448 30.2052 20.3448 29.3118V28.8431C21.7998 29.8862 23.1908 30.4082 24.519 30.4082C25.1244 30.4082 25.6 30.2903 25.9467 30.0554C26.2934 29.8206 26.4662 29.5241 26.4662 29.1672C26.4662 28.7816 26.2389 28.4595 25.7854 28.2011C25.3318 27.9426 24.6311 27.7057 23.6831 27.4893C22.511 27.2165 21.6542 26.8616 21.1126 26.4247C20.5711 25.9877 20.2998 25.4216 20.2998 24.7252C20.2998 23.879 20.6559 23.1949 21.3693 22.6739C22.0815 22.1518 22.9656 21.8913 24.0204 21.8913C24.7735 21.8913 25.513 22.0052 26.2379 22.2318C27.2036 22.5344 27.8436 23.4359 27.8436 24.4288V24.6831C27.3168 24.3262 26.7061 24.0257 26.0127 23.7806C25.3192 23.5365 24.6552 23.4144 24.0204 23.4144C23.4537 23.4144 22.9803 23.5344 22.6 23.7744C22.2188 24.0144 22.0292 24.3262 22.0292 24.7118C22.0292 25.0882 22.2512 25.3775 22.6954 25.5785C23.1395 25.7806 23.8748 25.9949 24.8992 26.2206C27.0957 26.719 28.1945 27.7006 28.1945 29.1672C28.1945 30.0606 27.8332 30.758 27.1104 31.2616C26.3887 31.7641 25.5005 32.0062 24.4457 31.9867Z" fill="url(#paint5_linear_410_8691)"/>
<path d="M60.0165 31.9867C59.1807 31.9754 58.372 31.8134 57.5896 31.5005C56.6238 31.1139 56.0027 30.1816 56.0027 29.16V28.8421C57.4262 29.8852 58.7879 30.4072 60.0878 30.4072C60.6806 30.4072 61.1457 30.2903 61.4851 30.0544C61.8245 29.8195 61.9942 29.5231 61.9942 29.1662C61.9942 28.7805 61.7721 28.4585 61.328 28.2C60.8838 27.9416 60.1978 27.7046 59.2707 27.4882C58.1238 27.2154 57.2858 26.8605 56.7547 26.4236C56.2247 25.9867 55.9597 25.4205 55.9597 24.7241C55.9597 23.878 56.3085 23.1939 57.0061 22.6729C57.7037 22.1508 58.5689 21.8903 59.6007 21.8903C60.3088 21.8903 61.0043 21.9949 61.6862 22.2052C62.6677 22.5067 63.3412 23.3908 63.3412 24.398V24.6831C62.8248 24.3262 62.2277 24.0257 61.549 23.7805C60.8702 23.5364 60.2208 23.4144 59.5997 23.4144C59.0455 23.4144 58.5815 23.5344 58.2097 23.7744C57.8368 24.0144 57.6503 24.3262 57.6503 24.7118C57.6503 25.0882 57.8671 25.3775 58.3029 25.5795C58.7376 25.7816 59.4572 25.9959 60.4607 26.2205C62.6111 26.719 63.6858 27.7005 63.6858 29.1672C63.6858 30.0605 63.3318 30.758 62.6247 31.2616C61.9177 31.7641 61.0483 32.0062 60.0165 31.9867Z" fill="url(#paint6_linear_410_8691)"/>
<path d="M48.8516 10.7856C48.132 11.2554 47.161 11.0841 46.654 10.3979L42.5123 4.78871C41.8189 3.84922 40.7065 3.2923 39.5229 3.2923C38.0114 3.2923 36.5921 4.00204 35.707 5.20204L30.8991 11.7138L30.6069 12.1097C29.2672 13.9251 27.1199 15 24.8332 15H24.5672H24.4583C22.1968 15 19.9269 14.1456 18.6019 12.3508L14.389 6.36922C13.9072 5.71691 14.0999 4.81127 14.7085 4.27179C15.6522 3.48102 16.7762 3.95794 17.3376 4.71897L21.1305 9.98461C21.9328 11.0708 23.2181 11.7138 24.5871 11.7138H25.0983C26.4558 11.5087 27.0853 11.0974 27.828 10.3292L32.9061 3.29332L32.9532 3.22768C34.4102 1.2082 36.7785 0.00717163 39.304 0.00717163C41.5989 0.00717163 43.7546 1.08614 45.0985 2.90666L49.2653 8.55076C49.7985 9.27589 49.611 10.2902 48.8516 10.7856Z" fill="url(#paint7_linear_410_8691)"/>
<defs>
<linearGradient id="paint0_linear_410_8691" x1="4.10636" y1="37.9208" x2="4.10636" y2="14.788" gradientUnits="userSpaceOnUse">
<stop stop-color="#36C59E"/>
<stop offset="0.1039" stop-color="#35BEA1"/>
<stop offset="0.2588" stop-color="#32A9AA"/>
<stop offset="0.4457" stop-color="#2C88B8"/>
<stop offset="0.6576" stop-color="#255ACC"/>
<stop offset="0.8873" stop-color="#1C1FE5"/>
<stop offset="1" stop-color="#1700F2"/>
</linearGradient>
<linearGradient id="paint1_linear_410_8691" x1="13.8289" y1="37.9208" x2="13.8289" y2="14.788" gradientUnits="userSpaceOnUse">
<stop stop-color="#36C59E"/>
<stop offset="0.1039" stop-color="#35BEA1"/>
<stop offset="0.2588" stop-color="#32A9AA"/>
<stop offset="0.4457" stop-color="#2C88B8"/>
<stop offset="0.6576" stop-color="#255ACC"/>
<stop offset="0.8873" stop-color="#1C1FE5"/>
<stop offset="1" stop-color="#1700F2"/>
</linearGradient>
<linearGradient id="paint2_linear_410_8691" x1="30.9059" y1="37.9208" x2="30.9059" y2="14.788" gradientUnits="userSpaceOnUse">
<stop stop-color="#36C59E"/>
<stop offset="0.1039" stop-color="#35BEA1"/>
<stop offset="0.2588" stop-color="#32A9AA"/>
<stop offset="0.4457" stop-color="#2C88B8"/>
<stop offset="0.6576" stop-color="#255ACC"/>
<stop offset="0.8873" stop-color="#1C1FE5"/>
<stop offset="1" stop-color="#1700F2"/>
</linearGradient>
<linearGradient id="paint3_linear_410_8691" x1="38.241" y1="37.9208" x2="38.241" y2="14.788" gradientUnits="userSpaceOnUse">
<stop stop-color="#36C59E"/>
<stop offset="0.1039" stop-color="#35BEA1"/>
<stop offset="0.2588" stop-color="#32A9AA"/>
<stop offset="0.4457" stop-color="#2C88B8"/>
<stop offset="0.6576" stop-color="#255ACC"/>
<stop offset="0.8873" stop-color="#1C1FE5"/>
<stop offset="1" stop-color="#1700F2"/>
</linearGradient>
<linearGradient id="paint4_linear_410_8691" x1="49.6256" y1="37.9208" x2="49.6256" y2="14.788" gradientUnits="userSpaceOnUse">
<stop stop-color="#36C59E"/>
<stop offset="0.1039" stop-color="#35BEA1"/>
<stop offset="0.2588" stop-color="#32A9AA"/>
<stop offset="0.4457" stop-color="#2C88B8"/>
<stop offset="0.6576" stop-color="#255ACC"/>
<stop offset="0.8873" stop-color="#1C1FE5"/>
<stop offset="1" stop-color="#1700F2"/>
</linearGradient>
<linearGradient id="paint5_linear_410_8691" x1="24.2482" y1="37.9208" x2="24.2482" y2="14.788" gradientUnits="userSpaceOnUse">
<stop stop-color="#36C59E"/>
<stop offset="0.1039" stop-color="#35BEA1"/>
<stop offset="0.2588" stop-color="#32A9AA"/>
<stop offset="0.4457" stop-color="#2C88B8"/>
<stop offset="0.6576" stop-color="#255ACC"/>
<stop offset="0.8873" stop-color="#1C1FE5"/>
<stop offset="1" stop-color="#1700F2"/>
</linearGradient>
<linearGradient id="paint6_linear_410_8691" x1="59.8227" y1="37.9208" x2="59.8227" y2="14.788" gradientUnits="userSpaceOnUse">
<stop stop-color="#36C59E"/>
<stop offset="0.1039" stop-color="#35BEA1"/>
<stop offset="0.2588" stop-color="#32A9AA"/>
<stop offset="0.4457" stop-color="#2C88B8"/>
<stop offset="0.6576" stop-color="#255ACC"/>
<stop offset="0.8873" stop-color="#1C1FE5"/>
<stop offset="1" stop-color="#1700F2"/>
</linearGradient>
<linearGradient id="paint7_linear_410_8691" x1="14.1163" y1="7.50352" x2="49.5686" y2="7.50352" gradientUnits="userSpaceOnUse">
<stop stop-color="#36C59E"/>
<stop offset="0.1039" stop-color="#35BEA1"/>
<stop offset="0.2588" stop-color="#32A9AA"/>
<stop offset="0.4457" stop-color="#2C88B8"/>
<stop offset="0.6576" stop-color="#255ACC"/>
<stop offset="0.8873" stop-color="#1C1FE5"/>
<stop offset="1" stop-color="#1700F2"/>
</linearGradient>
</defs>
</svg>
